# Blender v2.79 (sub 0) OBJ File: 'arrow.blend'
# www.blender.org
mtllib arrow.mtl
o Cube
v 1.561809 0.313419 -1.000000
v 1.561809 0.313419 1.000000
v 1.562634 -0.201093 1.000000
v 1.562634 -0.201092 -1.000000
v -0.438188 0.310212 -0.999999
v -0.438189 0.310211 1.000000
v -0.437364 -0.204300 0.999999
v -0.437363 -0.204299 -1.000000
v 0.348741 0.317478 0.076048
v 0.349567 -0.197033 0.076048
v -1.651256 0.314271 0.076048
v -1.650431 -0.200240 0.076048
vt 0.496485 0.298897
vt 0.305510 0.300013
vt 0.301060 0.256071
vt 0.492740 0.225266
vt 0.004522 0.331011
vt 0.000072 0.287069
vt 0.130250 0.273369
vt 0.134700 0.317310
vt 0.522986 0.516789
vt 0.442228 0.441605
vt 0.496570 0.000072
vt 0.582377 0.085674
vt 0.693710 0.236786
vt 0.862821 0.280278
vt 0.693713 0.280290
vt 0.862818 0.236774
vt 0.419563 0.088889
vt 0.594822 0.429577
vt 0.999925 0.237272
vt 0.999928 0.280776
vn 0.6059 0.0010 -0.7955
vn -0.6059 -0.0010 0.7955
vn -0.0016 1.0000 0.0065
vn -0.0000 -0.0000 1.0000
vn 0.0016 -1.0000 0.0056
vn 0.0000 0.0000 -1.0000
vn 0.0016 -1.0000 -0.0065
vn -0.0016 1.0000 -0.0056
vn -0.6636 -0.0011 -0.7481
vn 0.6636 0.0011 0.7481
usemtl Material
s off
f 9/1/1 2/2/1 3/3/1 10/4/1
f 11/5/2 12/6/2 7/7/2 6/8/2
f 9/1/3 11/9/3 6/10/3 2/2/3
f 2/2/4 6/8/4 7/7/4 3/3/4
f 10/4/5 12/11/5 8/12/5 4/13/5
f 5/14/6 1/15/6 4/13/6 8/16/6
f 3/3/7 7/17/7 12/11/7 10/4/7
f 1/15/8 5/18/8 11/9/8 9/1/8
f 5/14/9 8/16/9 12/19/9 11/20/9
f 1/15/10 9/1/10 10/4/10 4/13/10
