# Blender v2.79 (sub 0) OBJ File: 'maison.blend'
# www.blender.org
mtllib maison.mtl
o Plane
v -1.946889 0.000000 1.946889
v 1.946889 0.000000 1.946889
v -1.946889 0.000000 -1.946889
v 1.946889 0.000000 -1.946889
v -1.946889 2.891579 1.946889
v -1.946889 2.891579 -1.946889
v 1.946889 2.897633 1.946889
v 1.946889 2.897633 -1.946889
v -0.648963 0.000000 1.946889
v 0.648963 0.000000 1.946889
v 0.648963 0.000000 -1.946889
v -0.648963 0.000000 -1.946889
v 0.648963 2.895615 -1.946889
v -0.648963 2.893597 -1.946889
v -0.648963 2.893597 1.946889
v 0.648963 2.895615 1.946889
v -1.946889 1.509575 -1.946889
v -1.946889 1.509575 1.946889
v 1.946889 1.512735 1.946889
v 1.946889 1.512735 -1.946889
v 0.648963 1.511681 -1.946889
v -0.648963 1.510628 -1.946889
v -0.648963 1.510628 1.946889
v 0.648963 1.511681 1.946889
v -0.005289 5.002976 1.946890
v -0.005289 5.002976 -1.946888
v -0.648963 0.000000 1.925527
v -0.648963 1.510628 1.925528
v -1.930651 0.000000 1.925527
v -1.930651 1.510628 1.925528
v -1.930651 0.000000 -1.932355
v -1.930651 1.510628 -1.932355
v 1.931504 0.000000 -1.932355
v 1.931504 1.510628 -1.932355
v 1.931504 0.000000 1.921255
v 1.931504 1.510628 1.921255
v 0.645543 0.000000 1.921255
v 0.645543 1.510628 1.921255
v -0.648963 2.888700 1.925528
v -1.930651 2.888700 1.925528
v -1.930651 2.888700 -1.932355
v 1.931504 2.888700 -1.932355
v 1.931504 2.888700 1.921255
v 0.645543 2.888700 1.921255
vt 0.435175 0.190957
vt 0.434932 0.428922
vt 0.358158 0.427928
vt 0.355861 0.187874
vt 0.683236 0.202188
vt 0.767418 0.207150
vt 0.753439 0.444330
vt 0.669258 0.439369
vt 0.264897 0.428820
vt 0.179518 0.429637
vt 0.177221 0.189584
vt 0.262600 0.188767
vt 0.444090 0.094864
vt 0.361257 0.090701
vt 0.370271 0.000213
vt 0.455063 0.008793
vt 0.504731 0.515352
vt 0.575875 0.516437
vt 0.575110 0.592319
vt 0.503964 0.591797
vt 0.358846 0.514459
vt 0.432644 0.514434
vt 0.432252 0.591796
vt 0.359282 0.592319
vt 0.599064 0.104631
vt 0.523218 0.100042
vt 0.533661 0.018322
vt 0.606237 0.026046
vt 0.591284 0.196769
vt 0.577306 0.433949
vt 0.506822 0.431461
vt 0.510370 0.193283
vt 0.942141 0.217447
vt 0.928162 0.454627
vt 0.000213 0.191278
vt 0.002510 0.431331
vt 0.585029 0.940372
vt 0.585029 0.767383
vt 0.757633 0.926603
vt 0.758060 0.767383
vt 0.930664 0.781152
vt 0.758060 0.940372
vt 0.508959 0.191585
vt 0.521431 0.101555
vt 0.326855 0.670041
vt 0.235752 0.670041
vt 0.235752 0.592745
vt 0.326855 0.592745
vt 0.643736 0.683848
vt 0.643736 0.592745
vt 0.876397 0.592745
vt 0.876397 0.683848
vt 0.410391 0.683848
vt 0.410391 0.592745
vt 0.643309 0.592745
vt 0.643309 0.683848
vt 0.493499 0.767383
vt 0.584602 0.767383
vt 0.584602 0.999787
vt 0.493499 0.999787
vt 0.326855 0.825664
vt 0.235752 0.825664
vt 0.235752 0.748111
vt 0.326855 0.748111
vt 0.445454 0.096108
vt 0.436873 0.189773
vt 0.409964 0.592745
vt 0.409964 0.670041
vt 0.410391 0.999787
vt 0.410391 0.767383
vt 0.876397 0.766957
vt 0.643736 0.766957
vt 0.409964 0.748111
vt 0.409964 0.825664
vt 0.643309 0.766957
vt 0.410391 0.766957
vt 0.003125 0.592749
vt 0.235323 0.592745
vt 0.235326 0.825199
vt 0.003386 0.825203
vt 0.000213 0.709013
vt 0.002241 0.708977
vt 0.521420 0.101520
vn 0.0000 -1.0000 0.0000
vn -1.0000 0.0000 0.0000
vn 1.0000 0.0000 0.0000
vn -0.0000 -0.0000 1.0000
vn 0.0000 0.0000 -1.0000
vn -0.7361 0.6769 0.0000
vn 0.7333 0.6799 0.0000
vn -0.9912 -0.0000 0.1323
vn 0.0004 -0.9997 0.0224
vn -0.0033 0.0000 -1.0000
usemtl None
s off
f 10/1/1 11/2/1 4/3/1 2/4/1
f 18/5/2 5/6/2 6/7/2 17/8/2
f 20/9/3 8/10/3 7/11/3 19/12/3
f 24/13/4 19/14/4 7/15/4 16/16/4
f 22/17/5 17/18/5 6/19/5 14/20/5
f 20/21/5 21/22/5 13/23/5 8/24/5
f 21/22/5 22/17/5 14/20/5 13/23/5
f 18/25/4 23/26/4 15/27/4 5/28/4
f 23/26/4 24/13/4 16/16/4 15/27/4
f 1/29/1 3/30/1 12/31/1 9/32/1
f 9/32/1 12/31/1 11/2/1 10/1/1
f 1/29/4 9/32/4 23/26/4 18/25/4
f 11/2/5 12/31/5 22/17/5 21/22/5
f 4/3/5 11/2/5 21/22/5 20/21/5
f 12/31/5 3/30/5 17/18/5 22/17/5
f 10/1/4 2/4/4 19/14/4 24/13/4
f 4/3/3 20/9/3 19/12/3 2/4/3
f 1/29/2 18/5/2 17/8/2 3/30/2
f 5/6/6 25/33/6 26/34/6 6/7/6
f 25/35/7 7/11/7 8/10/7 26/36/7
f 25/37/4 5/38/4 7/39/4
f 26/40/5 8/41/5 6/42/5
f 23/26/3 9/32/3 27/43/3 28/44/3
f 28/45/5 27/46/5 29/47/5 30/48/5
f 30/49/3 29/50/3 31/51/3 32/52/3
f 32/53/4 31/54/4 33/55/4 34/56/4
f 34/57/2 33/58/2 35/59/2 36/60/2
f 36/61/5 35/62/5 37/63/5 38/64/5
f 38/65/8 37/66/8 10/1/8 24/13/8
f 28/45/5 30/48/5 40/67/5 39/68/5
f 34/57/2 36/60/2 43/69/2 42/70/2
f 30/49/3 32/52/3 41/71/3 40/72/3
f 36/61/5 38/64/5 44/73/5 43/74/5
f 32/53/4 34/56/4 42/75/4 41/76/4
f 40/77/1 41/78/1 42/79/1 43/80/1 44/81/1 39/82/1
f 24/13/9 23/26/9 28/83/9 38/65/9
usemtl None_NONE
f 38/64/10 28/45/10 39/68/10 44/73/10
