# Blender v2.79 (sub 0) OBJ File: 'table.blend'
# www.blender.org
mtllib table.mtl
o Cube
v 0.019435 -0.188292 -0.226893
v 0.019221 -0.251611 -0.670123
v 0.019435 -0.188292 -0.828421
v 0.019934 -0.040549 -0.828421
v 0.019756 -0.093317 -0.670141
v 0.019160 -0.019440 -0.279657
v 0.019938 0.043873 -0.089708
v 0.023360 1.056971 -0.089701
v 0.023314 1.173056 -0.237352
v 0.024105 1.194160 -1.514374
v 0.024389 1.278180 -1.524610
v 0.023849 1.256472 -0.001343
v 0.019784 -0.091064 0.005266
v 0.168611 -0.188796 -0.172637
v 0.453187 -0.253077 -0.512266
v 0.555112 -0.190101 -0.633562
v 0.555610 -0.042358 -0.633562
v 0.453732 -0.094782 -0.512279
v 0.203085 -0.020062 -0.213069
v 0.081250 0.043665 -0.067519
v 0.084668 1.056764 -0.067514
v 0.179931 1.172527 -0.180653
v 1.000528 1.190861 -1.159178
v 1.007389 1.274859 -1.167022
v 0.248057 -0.189064 -0.035213
v 0.684287 -0.253857 -0.112467
v 0.840374 -0.191065 -0.140057
v 0.840873 -0.043322 -0.140057
v 0.684838 -0.095563 -0.112470
v 0.300585 -0.020391 -0.044409
v 0.113758 0.043556 -0.011302
v 0.117173 1.056654 -0.011301
v 0.262956 1.172246 -0.037036
v 1.520493 1.189105 -0.259617
v 1.530857 1.273091 -0.261401
v 0.220633 -0.188971 0.121137
v 0.604485 -0.253588 0.342373
v 0.741866 -0.190732 0.421386
v 0.742365 -0.042989 0.421385
v 0.605035 -0.095294 0.342381
v 0.266926 -0.020277 0.147474
v 0.102545 0.043594 0.052662
v 0.105961 1.056692 0.052659
v 0.234296 1.172343 0.126358
v 1.340924 1.189712 0.763774
v 1.350078 1.273702 0.768884
v 0.099160 -0.188561 0.223320
v 0.251088 -0.252394 0.639620
v 0.305639 -0.189259 0.788300
v 0.306138 -0.041516 0.788299
v 0.251629 -0.094100 0.639637
v 0.117843 -0.019774 0.272879
v 0.052855 0.043761 0.094471
v 0.056275 1.056860 0.094465
v 0.107349 1.172772 0.233145
v 0.545767 1.192398 1.432575
v 0.549564 1.276406 1.442189
v -0.059575 -0.188025 0.223567
v -0.210695 -0.250834 0.640317
v -0.264377 -0.187333 0.789157
v -0.263878 -0.039590 0.789157
v -0.210167 -0.092540 0.640333
v -0.076970 -0.019115 0.273180
v -0.012084 0.043981 0.094579
v -0.008660 1.057079 0.094573
v -0.058538 1.173332 0.233403
v -0.493253 1.195907 1.434128
v -0.496454 1.279939 1.443753
v -0.181366 -0.187614 0.121763
v -0.564988 -0.249637 0.344137
v -0.701706 -0.185856 0.423557
v -0.701207 -0.038113 0.423557
v -0.564468 -0.091343 0.344146
v -0.226440 -0.018611 0.148236
v -0.061914 0.044149 0.052936
v -0.058485 1.057248 0.052933
v -0.185816 1.173762 0.127011
v -1.290406 1.198600 0.767708
v -1.298977 1.282650 0.772844
v -0.209277 -0.187519 -0.034500
v -0.646162 -0.249363 -0.110459
v -0.801902 -0.185517 -0.137587
v -0.801403 -0.037774 -0.137587
v -0.645644 -0.091069 -0.110462
v -0.260691 -0.018495 -0.043543
v -0.073339 0.044188 -0.010990
v -0.069910 1.057286 -0.010989
v -0.214984 1.173861 -0.036293
v -1.473034 1.199217 -0.255142
v -1.482835 1.283271 -0.256896
v -0.130259 -0.187786 -0.172172
v -0.416269 -0.250140 -0.510954
v -0.518126 -0.186476 -0.631948
v -0.517627 -0.038733 -0.631947
v -0.415746 -0.091845 -0.510967
v -0.163712 -0.018822 -0.212503
v -0.041019 0.044078 -0.067316
v -0.037592 1.057177 -0.067310
v -0.132406 1.173582 -0.180167
v -0.955760 1.197470 -1.156253
v -0.962077 1.281512 -1.164077
vt 0.397762 0.368631
vt 0.352163 0.289506
vt 0.357255 0.286571
vt 0.402854 0.365696
vt 0.476527 0.500357
vt 0.459674 0.484062
vt 0.472059 0.476897
vt 0.340067 0.277661
vt 0.353076 0.270165
vt 0.428836 0.458026
vt 0.464868 0.437184
vt 0.252111 0.203374
vt 0.333336 0.156740
vt 0.417316 0.447854
vt 0.461794 0.422126
vt 0.248041 0.196920
vt 0.329814 0.149972
vt 0.410648 0.436325
vt 0.455126 0.410598
vt 0.224453 0.061636
vt 0.407747 0.421568
vt 0.443780 0.400726
vt 0.401193 0.386350
vt 0.416469 0.377544
vt 0.516071 0.240913
vt 0.496298 0.127162
vt 0.588762 0.143676
vt 0.530833 0.243549
vt 0.467582 0.436576
vt 0.465331 0.421329
vt 0.516060 0.430373
vt 0.508678 0.443903
vt 0.497331 0.119580
vt 0.590417 0.136206
vt 0.467676 0.408180
vt 0.518404 0.417225
vt 0.566151 0.000099
vt 0.474995 0.394993
vt 0.516093 0.402320
vt 0.492814 0.363798
vt 0.510151 0.366890
vt 0.501598 0.347973
vt 0.507377 0.349004
vt 0.517687 0.257814
vt 0.523466 0.258846
vt 0.476763 0.499863
vt 0.474381 0.476475
vt 0.488508 0.478993
vt 0.529162 0.423697
vt 0.543223 0.418311
vt 0.569946 0.450294
vt 0.562147 0.463175
vt 0.576873 0.405895
vt 0.588145 0.419388
vt 0.593748 0.399432
vt 0.597505 0.403930
vt 0.663923 0.340817
vt 0.667680 0.345315
vt 0.477261 0.499637
vt 0.490452 0.480223
vt 0.499638 0.491217
vt 0.673536 0.326855
vt 0.683133 0.338346
vt 0.510863 0.445350
vt 0.537586 0.477332
vt 0.731432 0.227181
vt 0.791536 0.299160
vt 0.518929 0.432246
vt 0.551915 0.471724
vt 0.737088 0.222046
vt 0.797597 0.294510
vt 0.866692 0.174563
vt 0.631132 0.497739
vt 0.722387 0.497847
vt 0.722380 0.503696
vt 0.631125 0.503588
vt 0.477786 0.499784
vt 0.500319 0.493380
vt 0.500305 0.507678
vt 0.738688 0.493322
vt 0.738669 0.508264
vt 0.538284 0.479771
vt 0.538241 0.521367
vt 0.846855 0.454143
vt 0.846731 0.547733
vt 0.552852 0.474911
vt 0.552799 0.526257
vt 0.854473 0.453838
vt 0.854348 0.548059
vt 0.566160 0.474925
vt 0.566108 0.526270
vt 0.984411 0.500771
vt 0.580372 0.479814
vt 0.580329 0.521411
vt 0.614077 0.491872
vt 0.614058 0.509420
vt 0.682278 0.662521
vt 0.790329 0.701819
vt 0.730239 0.773499
vt 0.672684 0.673966
vt 0.537307 0.523668
vt 0.551592 0.529281
vt 0.518639 0.568614
vt 0.510611 0.555533
vt 0.796366 0.706468
vt 0.735871 0.778632
vt 0.561787 0.537822
vt 0.528834 0.577155
vt 0.865743 0.826121
vt 0.569549 0.550679
vt 0.542852 0.582545
vt 0.587662 0.581530
vt 0.576399 0.594972
vt 0.596977 0.596960
vt 0.593222 0.601441
vt 0.666878 0.655541
vt 0.663123 0.660021
vt 0.478095 0.500233
vt 0.499476 0.509767
vt 0.490300 0.520721
vt 0.515887 0.598252
vt 0.509986 0.633578
vt 0.492703 0.636669
vt 0.474919 0.605581
vt 0.507231 0.651412
vt 0.501470 0.652441
vt 0.523296 0.741290
vt 0.517535 0.742319
vt 0.478043 0.500775
vt 0.488342 0.521828
vt 0.474260 0.524348
vt 0.530640 0.756540
vt 0.515923 0.759169
vt 0.508471 0.556800
vt 0.467503 0.564130
vt 0.588387 0.856108
vt 0.496208 0.872570
vt 0.515837 0.570285
vt 0.465268 0.579331
vt 0.590038 0.863555
vt 0.497237 0.880129
vt 0.518182 0.583392
vt 0.467613 0.592438
vt 0.566086 0.999901
vt 0.403197 0.635553
vt 0.357732 0.714875
vt 0.352648 0.711961
vt 0.398112 0.632639
vt 0.477655 0.501158
vt 0.472023 0.523941
vt 0.459593 0.516820
vt 0.353564 0.731304
vt 0.340576 0.723858
vt 0.464985 0.563728
vt 0.428827 0.543011
vt 0.333865 0.844866
vt 0.252521 0.798228
vt 0.461969 0.578815
vt 0.417336 0.553242
vt 0.330343 0.851644
vt 0.248451 0.804691
vt 0.455341 0.590384
vt 0.410707 0.564811
vt 0.224308 0.940494
vt 0.444023 0.600314
vt 0.407864 0.579596
vt 0.416778 0.623636
vt 0.401524 0.614895
vt 0.427078 0.541040
vt 0.415043 0.550671
vt 0.397280 0.502296
vt 0.412687 0.501850
vt 0.145352 0.672235
vt 0.138283 0.675166
vt 0.105711 0.586382
vt 0.112998 0.584046
vt 0.402505 0.555275
vt 0.384741 0.506900
vt 0.000099 0.674966
vt 0.387425 0.555602
vt 0.373034 0.516411
vt 0.351498 0.555938
vt 0.345427 0.539405
vt 0.333400 0.556330
vt 0.331378 0.550819
vt 0.247416 0.587889
vt 0.245393 0.582378
vt 0.477111 0.501203
vt 0.458111 0.515052
vt 0.453164 0.501581
vt 0.233633 0.597807
vt 0.228467 0.583727
vt 0.372924 0.484685
vt 0.345252 0.461701
vt 0.351309 0.445140
vt 0.387281 0.445245
vt 0.331169 0.450293
vt 0.333189 0.444773
vt 0.245046 0.418785
vt 0.247065 0.413265
vt 0.476665 0.500886
vt 0.453182 0.499245
vt 0.458116 0.485688
vt 0.228097 0.417448
vt 0.233257 0.403346
vt 0.412655 0.499147
vt 0.427011 0.459708
vt 0.112485 0.417214
vt 0.145075 0.328579
vt 0.397227 0.498765
vt 0.414948 0.450083
vt 0.105190 0.414871
vt 0.138000 0.325639
vt 0.384660 0.494190
vt 0.402381 0.445508
vt 0.000099 0.325407
vn 0.3403 -0.0011 -0.9403
vn -0.1422 -0.9129 0.3825
vn 0.2159 -0.7675 -0.6035
vn -0.0547 -0.9885 0.1412
vn 0.0026 -0.9999 -0.0165
vn 0.1308 -0.9206 -0.3681
vn 0.3392 -0.1149 -0.9337
vn 0.3418 -0.0012 -0.9398
vn -0.0018 0.9999 0.0142
vn -0.1111 0.9428 0.3142
vn 0.0707 0.9801 -0.1854
vn 0.1170 0.9420 -0.3145
vn 0.0118 -0.9999 -0.0088
vn 0.3360 -0.9213 -0.1960
vn 0.8598 -0.1167 -0.4972
vn 0.8658 -0.0029 -0.5004
vn -0.0097 0.9999 0.0076
vn -0.2863 0.9434 0.1673
vn 0.1742 0.9797 -0.0988
vn 0.2926 0.9415 -0.1673
vn 0.8657 -0.0029 -0.5006
vn -0.3555 -0.9122 0.2037
vn 0.5529 -0.7689 -0.3212
vn -0.1335 -0.9882 0.0752
vn -0.3261 0.9436 -0.0578
vn 0.1977 0.9797 0.0341
vn 0.3324 0.9414 0.0577
vn 0.9850 -0.0033 0.1727
vn -0.4040 -0.9120 -0.0703
vn 0.6294 -0.7691 0.1108
vn -0.1514 -0.9881 -0.0260
vn 0.0139 -0.9999 0.0030
vn 0.3826 -0.9214 0.0677
vn 0.9782 -0.1171 0.1717
vn 0.9849 -0.0033 0.1728
vn -0.0115 0.9999 -0.0026
vn 0.6438 -0.0022 0.7652
vn -0.2651 -0.9125 -0.3115
vn 0.4105 -0.7684 0.4910
vn -0.1001 -0.9883 -0.1150
vn 0.0079 -0.9999 0.0135
vn 0.2490 -0.9210 0.2997
vn 0.6391 -0.1159 0.7603
vn 0.6437 -0.0022 0.7653
vn -0.0063 0.9999 -0.0115
vn -0.2120 0.9432 -0.2559
vn 0.1303 0.9799 0.1510
vn 0.2184 0.9417 0.2558
vn -0.0034 -0.9998 0.0176
vn -0.0025 -0.9201 0.3916
vn 0.0011 -0.1137 0.9935
vn 0.0015 -0.0000 1.0000
vn 0.0034 0.9999 -0.0150
vn 0.0027 0.9424 -0.3343
vn 0.0036 0.9803 0.1974
vn 0.0037 0.9425 0.3343
vn 0.0017 0.0000 1.0000
vn -0.0037 -0.9134 -0.4070
vn -0.0016 -0.7670 0.6417
vn -0.0036 -0.9886 -0.1503
vn -0.1233 0.9808 0.1514
vn -0.2112 0.9432 0.2565
vn -0.6413 0.0022 0.7673
vn 0.2580 -0.9143 -0.3123
vn -0.4141 -0.7656 0.4923
vn 0.0931 -0.9890 -0.1153
vn -0.0147 -0.9998 0.0135
vn -0.2543 -0.9193 0.3005
vn -0.6376 -0.1116 0.7622
vn -0.6414 0.0022 0.7672
vn 0.0130 0.9998 -0.0115
vn 0.2176 0.9417 -0.2565
vn -0.9844 0.0033 0.1759
vn 0.3976 -0.9148 -0.0716
vn -0.6343 -0.7648 0.1128
vn 0.1446 -0.9891 -0.0264
vn -0.0207 -0.9998 0.0031
vn -0.3887 -0.9188 0.0688
vn -0.9784 -0.1104 0.1746
vn -0.9844 0.0033 0.1758
vn 0.0182 0.9998 -0.0027
vn 0.3323 0.9413 -0.0588
vn -0.1910 0.9810 0.0347
vn -0.3259 0.9436 0.0588
vn -0.3428 -0.9190 -0.1950
vn -0.8620 -0.1108 -0.4946
vn -0.8673 0.0029 -0.4978
vn 0.0165 0.9998 0.0075
vn 0.2931 0.9415 0.1664
vn -0.1678 0.9809 -0.0982
vn -0.2867 0.9434 -0.1664
vn -0.8673 0.0029 -0.4977
vn 0.3499 -0.9146 0.2026
vn -0.5591 -0.7651 -0.3194
vn 0.1270 -0.9891 0.0748
vn -0.0186 -0.9998 -0.0088
vn -0.0646 0.9805 -0.1855
vn -0.1121 0.9429 -0.3138
vn -0.3448 0.0012 -0.9387
vn 0.1367 -0.9138 0.3825
vn -0.2238 -0.7662 -0.6023
vn 0.0483 -0.9888 0.1412
vn -0.0094 -0.9998 -0.0165
vn -0.1376 -0.9196 -0.3680
vn -0.3414 -0.1125 -0.9331
vn -0.3433 0.0012 -0.9392
vn 0.0086 0.9999 0.0143
vn 0.1180 0.9420 0.3142
usemtl Material
s off
f 7/1/1 8/2/1 21/3/1 20/4/1
f 13/5/2 1/6/2 14/7/2
f 8/2/3 9/8/3 22/9/3 21/3/3
f 1/6/4 2/10/4 15/11/4 14/7/4
f 9/8/5 10/12/5 23/13/5 22/9/5
f 2/10/6 3/14/6 16/15/6 15/11/6
f 10/12/7 11/16/7 24/17/7 23/13/7
f 3/14/8 4/18/8 17/19/8 16/15/8
f 11/16/9 12/20/9 24/17/9
f 4/18/10 5/21/10 18/22/10 17/19/10
f 5/21/11 6/23/11 19/24/11 18/22/11
f 6/23/12 7/1/12 20/4/12 19/24/12
f 22/25/13 23/26/13 34/27/13 33/28/13
f 15/29/14 16/30/14 27/31/14 26/32/14
f 23/26/15 24/33/15 35/34/15 34/27/15
f 16/30/16 17/35/16 28/36/16 27/31/16
f 24/33/17 12/37/17 35/34/17
f 17/35/18 18/38/18 29/39/18 28/36/18
f 18/38/19 19/40/19 30/41/19 29/39/19
f 19/40/20 20/42/20 31/43/20 30/41/20
f 20/42/21 21/44/21 32/45/21 31/43/21
f 13/46/22 14/47/22 25/48/22
f 21/44/23 22/25/23 33/28/23 32/45/23
f 14/47/24 15/29/24 26/32/24 25/48/24
f 28/49/25 29/50/25 40/51/25 39/52/25
f 29/50/26 30/53/26 41/54/26 40/51/26
f 30/53/27 31/55/27 42/56/27 41/54/27
f 31/55/28 32/57/28 43/58/28 42/56/28
f 13/59/29 25/60/29 36/61/29
f 32/57/30 33/62/30 44/63/30 43/58/30
f 25/60/31 26/64/31 37/65/31 36/61/31
f 33/62/32 34/66/32 45/67/32 44/63/32
f 26/64/33 27/68/33 38/69/33 37/65/33
f 34/66/34 35/70/34 46/71/34 45/67/34
f 27/68/35 28/49/35 39/52/35 38/69/35
f 35/70/36 12/72/36 46/71/36
f 42/73/37 43/74/37 54/75/37 53/76/37
f 13/77/38 36/78/38 47/79/38
f 43/74/39 44/80/39 55/81/39 54/75/39
f 36/78/40 37/82/40 48/83/40 47/79/40
f 44/80/41 45/84/41 56/85/41 55/81/41
f 37/82/42 38/86/42 49/87/42 48/83/42
f 45/84/43 46/88/43 57/89/43 56/85/43
f 38/86/44 39/90/44 50/91/44 49/87/44
f 46/88/45 12/92/45 57/89/45
f 39/90/46 40/93/46 51/94/46 50/91/46
f 40/93/47 41/95/47 52/96/47 51/94/47
f 41/95/48 42/73/48 53/76/48 52/96/48
f 55/97/49 56/98/49 67/99/49 66/100/49
f 48/101/50 49/102/50 60/103/50 59/104/50
f 56/98/51 57/105/51 68/106/51 67/99/51
f 49/102/52 50/107/52 61/108/52 60/103/52
f 57/105/53 12/109/53 68/106/53
f 50/107/54 51/110/54 62/111/54 61/108/54
f 51/110/55 52/112/55 63/113/55 62/111/55
f 52/112/56 53/114/56 64/115/56 63/113/56
f 53/114/57 54/116/57 65/117/57 64/115/57
f 13/118/58 47/119/58 58/120/58
f 54/116/59 55/97/59 66/100/59 65/117/59
f 47/119/60 48/101/60 59/104/60 58/120/60
f 62/121/61 63/122/61 74/123/61 73/124/61
f 63/122/62 64/125/62 75/126/62 74/123/62
f 64/125/63 65/127/63 76/128/63 75/126/63
f 13/129/64 58/130/64 69/131/64
f 65/127/65 66/132/65 77/133/65 76/128/65
f 58/130/66 59/134/66 70/135/66 69/131/66
f 66/132/67 67/136/67 78/137/67 77/133/67
f 59/134/68 60/138/68 71/139/68 70/135/68
f 67/136/69 68/140/69 79/141/69 78/137/69
f 60/138/70 61/142/70 72/143/70 71/139/70
f 68/140/71 12/144/71 79/141/71
f 61/142/72 62/121/72 73/124/72 72/143/72
f 75/145/73 76/146/73 87/147/73 86/148/73
f 13/149/74 69/150/74 80/151/74
f 76/146/75 77/152/75 88/153/75 87/147/75
f 69/150/76 70/154/76 81/155/76 80/151/76
f 77/152/77 78/156/77 89/157/77 88/153/77
f 70/154/78 71/158/78 82/159/78 81/155/78
f 78/156/79 79/160/79 90/161/79 89/157/79
f 71/158/80 72/162/80 83/163/80 82/159/80
f 79/160/81 12/164/81 90/161/81
f 72/162/82 73/165/82 84/166/82 83/163/82
f 73/165/83 74/167/83 85/168/83 84/166/83
f 74/167/84 75/145/84 86/148/84 85/168/84
f 81/169/85 82/170/85 93/171/85 92/172/85
f 89/173/86 90/174/86 101/175/86 100/176/86
f 82/170/87 83/177/87 94/178/87 93/171/87
f 90/174/88 12/179/88 101/175/88
f 83/177/89 84/180/89 95/181/89 94/178/89
f 84/180/90 85/182/90 96/183/90 95/181/90
f 85/182/91 86/184/91 97/185/91 96/183/91
f 86/184/92 87/186/92 98/187/92 97/185/92
f 13/188/93 80/189/93 91/190/93
f 87/186/94 88/191/94 99/192/94 98/187/94
f 80/189/95 81/169/95 92/172/95 91/190/95
f 88/191/96 89/173/96 100/176/96 99/192/96
f 95/193/97 96/194/97 6/195/97 5/196/97
f 96/194/98 97/197/98 7/198/98 6/195/98
f 97/197/99 98/199/99 8/200/99 7/198/99
f 13/201/100 91/202/100 1/203/100
f 98/199/101 99/204/101 9/205/101 8/200/101
f 91/202/102 92/206/102 2/207/102 1/203/102
f 99/204/103 100/208/103 10/209/103 9/205/103
f 92/206/104 93/210/104 3/211/104 2/207/104
f 100/208/105 101/212/105 11/213/105 10/209/105
f 93/210/106 94/214/106 4/215/106 3/211/106
f 101/212/107 12/216/107 11/213/107
f 94/214/108 95/193/108 5/196/108 4/215/108
l 12 13
