# Blender v2.79 (sub 0) OBJ File: 'arrow.blend'
# www.blender.org
mtllib arrow.mtl
o Cube
v 1.561809 0.313419 -1.000000
v 1.561809 0.313419 1.000000
v 1.562634 -0.201093 1.000000
v 1.562634 -0.201092 -1.000000
v -0.438188 0.310212 -0.999999
v -0.438189 0.310211 1.000000
v -0.437364 -0.204300 0.999999
v -0.437363 -0.204299 -1.000000
v 0.348741 0.317478 0.076048
v 0.349567 -0.197033 0.076048
v -1.651256 0.314271 0.076048
v -1.650431 -0.200240 0.076048
vt 0.276745 0.465084
vt 0.275346 0.222612
vt 0.331137 0.216966
vt 0.370232 0.460336
vt 0.203719 0.930397
vt 0.203719 0.999103
vt 0.000095 0.999905
vt 0.000095 0.931199
vt 0.000095 0.498712
vt 0.095560 0.396184
vt 0.253399 0.005741
vt 0.309191 0.000095
vt 0.656150 0.465219
vt 0.547457 0.574157
vt 0.355587 0.715498
vt 0.300352 0.930207
vt 0.300352 0.715498
vt 0.355587 0.930207
vt 0.543390 0.367439
vt 0.110818 0.589927
vt 0.420253 0.931199
vt 0.420253 0.999905
vn 0.6059 0.0010 -0.7955
vn -0.6059 -0.0010 0.7955
vn -0.0016 1.0000 0.0065
vn -0.0000 -0.0000 1.0000
vn 0.0016 -1.0000 0.0056
vn 0.0000 0.0000 -1.0000
vn 0.0016 -1.0000 -0.0065
vn -0.0016 1.0000 -0.0056
vn -0.6636 -0.0011 -0.7481
vn 0.6636 0.0011 0.7481
usemtl Material
s off
f 9/1/1 2/2/1 3/3/1 10/4/1
f 11/5/2 12/6/2 7/7/2 6/8/2
f 9/1/3 11/9/3 6/10/3 2/2/3
f 2/2/4 6/11/4 7/12/4 3/3/4
f 10/4/5 12/13/5 8/14/5 4/15/5
f 5/16/6 1/17/6 4/15/6 8/18/6
f 3/3/7 7/19/7 12/13/7 10/4/7
f 1/17/8 5/20/8 11/9/8 9/1/8
f 5/21/9 8/22/9 12/6/9 11/5/9
f 1/17/10 9/1/10 10/4/10 4/15/10
