# Blender v2.79 (sub 0) OBJ File: 'maison.blend'
# www.blender.org
mtllib maison.mtl
o Plane
v -1.946889 0.000000 1.946889
v 1.946889 0.000000 1.946889
v -1.946889 0.000000 -1.946889
v 1.946889 0.000000 -1.946889
v -1.946889 2.891579 1.946889
v -1.946889 2.891579 -1.946889
v 1.946889 2.897633 1.946889
v 1.946889 2.897633 -1.946889
v -0.648963 0.000000 1.946889
v 0.648963 0.000000 1.946889
v 0.648963 0.000000 -1.946889
v -0.648963 0.000000 -1.946889
v 0.648963 2.895615 -1.946889
v -0.648963 2.893597 -1.946889
v -0.648963 2.893597 1.946889
v 0.648963 2.895615 1.946889
v -1.946889 1.509575 -1.946889
v -1.946889 1.509575 1.946889
v 1.946889 1.512735 1.946889
v 1.946889 1.512735 -1.946889
v 0.648963 1.511681 -1.946889
v -0.648963 1.510628 -1.946889
v -0.648963 1.510628 1.946889
v 0.648963 1.511681 1.946889
v -0.005289 5.002976 1.946890
v -0.005289 5.002976 -1.946888
v -0.648963 0.000000 1.925527
v -0.648963 1.510628 1.925528
v -1.930651 0.000000 1.925527
v -1.930651 1.510628 1.925528
v -1.930651 0.000000 -1.932355
v -1.930651 1.510628 -1.932355
v 1.931504 0.000000 -1.932355
v 1.931504 1.510628 -1.932355
v 1.931504 0.000000 1.921255
v 1.931504 1.510628 1.921255
v 0.645543 0.000000 1.921255
v 0.645543 1.510628 1.921255
v -0.648963 2.888700 1.925528
v -1.930651 2.888700 1.925528
v -1.930651 2.888700 -1.932355
v 1.931504 2.888700 -1.932355
v 1.931504 2.888700 1.921255
v 0.645543 2.888700 1.921255
vt 0.439022 0.183031
vt 0.440319 0.424923
vt 0.362494 0.423839
vt 0.360736 0.180496
vt 0.689832 0.195529
vt 0.774805 0.199942
vt 0.762370 0.439350
vt 0.677398 0.434937
vt 0.267955 0.424522
vt 0.181405 0.425147
vt 0.179647 0.181805
vt 0.266197 0.181179
vt 0.446450 0.092025
vt 0.367413 0.086412
vt 0.378772 0.000214
vt 0.459540 0.010985
vt 0.511137 0.512597
vt 0.583208 0.513698
vt 0.582447 0.590620
vt 0.510338 0.590101
vt 0.363142 0.511636
vt 0.437998 0.511642
vt 0.437591 0.590106
vt 0.363568 0.590620
vt 0.597054 0.103504
vt 0.522328 0.103304
vt 0.533947 0.023196
vt 0.601906 0.029709
vt 0.597017 0.190709
vt 0.584582 0.430117
vt 0.513402 0.427619
vt 0.520456 0.190618
vt 0.951169 0.209102
vt 0.938734 0.448510
vt 0.000214 0.183101
vt 0.001972 0.426444
vt 0.761218 0.940123
vt 0.761218 0.766414
vt 0.934542 0.926297
vt 0.587466 0.766414
vt 0.760790 0.780240
vt 0.587466 0.940123
vt 0.518539 0.188607
vt 0.521147 0.104256
vt 0.328217 0.668666
vt 0.236735 0.668666
vt 0.236735 0.591048
vt 0.328217 0.591048
vt 0.646418 0.682531
vt 0.646418 0.591048
vt 0.880049 0.591048
vt 0.880049 0.682531
vt 0.412100 0.682531
vt 0.412100 0.591048
vt 0.645990 0.591048
vt 0.645990 0.682531
vt 0.495556 0.766414
vt 0.587038 0.766414
vt 0.587038 0.999786
vt 0.495556 0.999786
vt 0.328217 0.824938
vt 0.236735 0.824938
vt 0.236735 0.747061
vt 0.328217 0.747061
vt 0.447738 0.094077
vt 0.441033 0.181810
vt 0.411672 0.591048
vt 0.411672 0.668666
vt 0.412100 0.999786
vt 0.412100 0.766414
vt 0.880049 0.765986
vt 0.646418 0.765986
vt 0.411672 0.747061
vt 0.411672 0.824938
vt 0.645990 0.765986
vt 0.412100 0.765986
vt 0.003138 0.591052
vt 0.236303 0.591048
vt 0.236307 0.824471
vt 0.003400 0.824475
vt 0.000214 0.707801
vt 0.002251 0.707764
vn 0.0000 -1.0000 0.0000
vn -1.0000 0.0000 0.0000
vn 1.0000 0.0000 0.0000
vn -0.0000 -0.0000 1.0000
vn 0.0000 0.0000 -1.0000
vn -0.7361 0.6769 0.0000
vn 0.7333 0.6799 0.0000
vn -0.9912 -0.0000 0.1323
vn -0.0033 0.0000 -1.0000
usemtl None
s off
f 10/1/1 11/2/1 4/3/1 2/4/1
f 18/5/2 5/6/2 6/7/2 17/8/2
f 20/9/3 8/10/3 7/11/3 19/12/3
f 24/13/4 19/14/4 7/15/4 16/16/4
f 22/17/5 17/18/5 6/19/5 14/20/5
f 20/21/5 21/22/5 13/23/5 8/24/5
f 21/22/5 22/17/5 14/20/5 13/23/5
f 18/25/4 23/26/4 15/27/4 5/28/4
f 23/26/4 24/13/4 16/16/4 15/27/4
f 1/29/1 3/30/1 12/31/1 9/32/1
f 9/32/1 12/31/1 11/2/1 10/1/1
f 1/29/4 9/32/4 23/26/4 18/25/4
f 11/2/5 12/31/5 22/17/5 21/22/5
f 4/3/5 11/2/5 21/22/5 20/21/5
f 12/31/5 3/30/5 17/18/5 22/17/5
f 10/1/4 2/4/4 19/14/4 24/13/4
f 4/3/3 20/9/3 19/12/3 2/4/3
f 1/29/2 18/5/2 17/8/2 3/30/2
f 5/6/6 25/33/6 26/34/6 6/7/6
f 25/35/7 7/11/7 8/10/7 26/36/7
f 25/37/4 5/38/4 7/39/4
f 26/40/5 8/41/5 6/42/5
f 23/26/3 9/32/3 27/43/3 28/44/3
f 28/45/5 27/46/5 29/47/5 30/48/5
f 30/49/3 29/50/3 31/51/3 32/52/3
f 32/53/4 31/54/4 33/55/4 34/56/4
f 34/57/2 33/58/2 35/59/2 36/60/2
f 36/61/5 35/62/5 37/63/5 38/64/5
f 38/65/8 37/66/8 10/1/8 24/13/8
f 28/45/5 30/48/5 40/67/5 39/68/5
f 34/57/2 36/60/2 43/69/2 42/70/2
f 30/49/3 32/52/3 41/71/3 40/72/3
f 36/61/5 38/64/5 44/73/5 43/74/5
f 32/53/4 34/56/4 42/75/4 41/76/4
f 40/77/1 41/78/1 42/79/1 43/80/1 44/81/1 39/82/1
usemtl None_NONE
f 38/64/9 28/45/9 39/68/9 44/73/9
